<!DOCTYPE svg PUBLIC "-//W3C//DTD SVG 1.1//EN" "http://www.w3.org/Graphics/SVG/1.1/DTD/svg11.dtd">
<!-- Uploaded to: SVG Repo, www.svgrepo.com, Transformed by: SVG Repo Mixer Tools -->
<svg version="1.1" id="Layer_1" xmlns="http://www.w3.org/2000/svg" xmlns:xlink="http://www.w3.org/1999/xlink" viewBox="-40.96 -40.96 593.92 593.92" xml:space="preserve" width="197px" height="197px" fill="#000000">
<g id="SVGRepo_bgCarrier" stroke-width="0"/>
<g id="SVGRepo_tracerCarrier" stroke-linecap="round" stroke-linejoin="round"/>
<g id="SVGRepo_iconCarrier"> <rect x="72.348" y="89.043" style="fill:#ffeddb;" width="367.304" height="322.783"/> <rect x="256" y="89.043" style="fill:#ffeddb;" width="183.652" height="322.783"/> <rect x="105.739" y="89.043" style="fill:#DBE1F1;" width="300.522" height="322.783"/> <rect x="256" y="89.043" style="fill:#D0D5E5;" width="150.261" height="322.783"/> <path style="fill:#7CCC92;" d="M356.174,133.565h-66.783c-11.576,0-22.817,1.67-33.391,4.897 c-48.196,14.358-83.478,59.103-83.478,111.972v66.783c0,9.238,7.456,16.696,16.696,16.696H256c64.445,0,116.87-52.424,116.87-116.87 v-66.783C372.87,141.023,365.413,133.565,356.174,133.565z"/> <path style="fill:#34B772;" d="M372.87,150.261v66.783c0,64.445-52.424,116.87-116.87,116.87v-195.45 c10.574-3.228,21.816-4.897,33.391-4.897h66.783C365.413,133.565,372.87,141.023,372.87,150.261z"/> <path style="fill:#ffeddb;" d="M389.565,0h-267.13C94.816,0,72.348,22.468,72.348,50.087v50.087h367.304V50.087 C439.652,22.468,417.184,0,389.565,0z"/> <path style="fill:#ffeddb;" d="M389.565,0H256v100.174h183.652V50.087C439.652,22.468,417.184,0,389.565,0z"/> <path style="fill:#ffeddb;" d="M72.348,400.696v61.217c0,27.619,22.468,50.087,50.087,50.087h267.13 c27.619,0,50.087-22.468,50.087-50.087v-61.217H72.348z"/> <path style="fill:#ffeddb;" d="M256,512h133.565c27.619,0,50.087-22.468,50.087-50.087v-61.217H256V512z"/> <path style="fill:#DDDD47;" d="M301.191,228.842l-139.13,139.13c-6.568,6.567-17.03,6.567-23.598,0 c-6.567-6.456-6.567-17.141,0-23.597l139.13-139.13c6.568-6.567,17.03-6.567,23.598,0 C307.757,211.701,307.757,222.386,301.191,228.842z"/> <path style="fill:#C7D100;" d="M301.191,228.842L256,274.031v-47.193l21.592-21.593c6.568-6.567,17.03-6.567,23.598,0 C307.757,211.701,307.757,222.386,301.191,228.842z"/> </g>
</svg>